<svg width="43" height="45" fill="none" xmlns="http://www.w3.org/2000/svg"><path d="M42.606 17.248c-.125-1.33-1.194-4.892-3.131-7.21-.368-.44-.743-.879-1.124-1.31a.733.733 0 0 0-.117-.322C32.265-.853 19.676-2.304 10.854 3.27 7.86 5.163 5.62 7.787 4.127 10.906 1.878 13.96.405 17.621.076 21.518-.747 31.264 5.2 41.636 14.562 44.165c4.694 1.27 10.196 1.058 14.839-.396 4.522-1.416 8.233-4.285 10.263-8.792.144-.322.28-.648.41-.974.102-.136.208-.272.305-.412 3.305-4.668 2.743-10.868 2.229-16.34l-.002-.002zm-8.667 20.798c-3.835 2.894-8.495 4.859-13.284 4.796-4.631-.061-9.118-1.893-12.215-5.535-1.656-1.947-3.11-4.233-4.23-6.555-1.215-2.521-1.391-5.16-1.26-7.939.108-2.289.352-4.634.873-6.893.34.251.85.223.974-.307 1.029-4.376 4.223-7.781 8.128-9.59 4.683-2.169 10.085-2.017 15.016-.98 2.472.52 4.866 1.39 6.661 3.312 1.584 1.695 2.809 3.778 3.745 5.921 1.845 4.222 2.501 8.985 1.906 13.58-.233 1.784-.65 3.576-1.288 5.262-1.351 1.879-3.12 3.49-5.022 4.928h-.004zm6.194-24.4c.67 1.25.903 2.697 1.14 3.846.189.924.162 1.888.216 2.84l-.027-.192c-.557-3.448-1.805-7.067-3.767-10.069.167.195.334.39.5.587.74.877 1.388 1.963 1.938 2.988zM32.664 4.55c-2.348-.872-5.007-1.24-7.403-1.644-2.754-.464-5.592-.677-8.357-.182a19.353 19.353 0 0 0-6.43 2.415C16.803.416 26.252.026 32.665 4.551zM1.883 28.104a20.427 20.427 0 0 1-.154-8.22c-.514 4.05-.352 8.311 1.435 11.83 1.419 2.793 3.151 5.478 5.346 7.626-.1-.084-.198-.169-.295-.255-3.177-2.808-5.387-6.776-6.332-10.983v.002zM34.11 39.908c-1.335 1.003-2.824 1.752-4.39 2.3a27.855 27.855 0 0 0 5.83-3.571c-.447.455-.923.884-1.442 1.27h.002z" fill="#000"/><path d="M15.003 23.21a97.77 97.77 0 0 0-.828-.026c-.023 0-.045-.007-.068-.007h-.135c-.584 0-.726.581-.44.889a3.354 3.354 0 0 0-.4.138c-.592.248-.247.973.308 1.001 1.242.066 2.368-.262 3.55-.398.645.014 1.254.04 1.717.04 1.874 0 3.76-.017 5.63.121 1.029.078 2.08.134 3.136.16 2.163.18 4.324.39 6.494.436.63.012.746-.678.363-.957.203-.042.404-.087.605-.136.602-.145.559-.877-.003-1.036-.562-.16-1.139-.272-1.725-.357.433-.002.866-.01 1.301-.021.78-.021.778-1.074-.009-1.074h-.135s-.02 0-.03.002c-3.58.085-7.128-.14-10.717-.12-3.485.02-6.968.11-10.453.118-.782.016-.778 1.076.01 1.074.631-.014 1.238.054 1.833.15l-.004.002zm14.028.81c-.223-.032-.449-.062-.672-.098a45.055 45.055 0 0 1 2.702.03c-.674.045-1.353.067-2.03.069z" fill="#000"/><path d="M8.935 22.124c.272-.075.552-.136.834-.193 1.302-.673 2.628-1.294 3.936-1.953 1.239-.624 2.69-1.157 3.695-2.135.332-.32.914-.091.914.378v.12c0 .304-.208.476-.44.516-.817.687-1.787 1.109-2.738 1.587.347-.103.694-.215 1.04-.333.354-.176.728-.288 1.096-.412.37-.155.73-.322 1.074-.505.62-.33 1.093.535.536.931-.455.324-.857.472-1.4.624-.034.01-.064.024-.098.033l-.29.106c-.745.31-1.392.844-2.155 1.08-.902.282-1.811.512-2.73.723.267.216.58.382.824.65.521.567 1.09 1.079 1.645 1.611 1.125 1.081 1.946 2.423 3.252 3.316.312.214.382.737-.004.929l-.24.12c-.416.208-.798-.15-.809-.5-1.114-.898-1.999-2.052-2.964-3.108-.345-.377-.794-.731-1.25-1.095.361.345.727.687 1.097 1.025 1.161 1.065 2.066 2.362 3.088 3.55.446.521-.305 1.279-.763.756-2.23-2.54-5.502-4.285-7.473-7.031-.205-.286.016-.701.323-.786v-.004z" fill="#000"/></svg>