<svg width="43" height="45" fill="none" xmlns="http://www.w3.org/2000/svg"><path d="M.394 17.248c.125-1.33 1.194-4.892 3.131-7.21.368-.44.743-.879 1.124-1.31a.734.734 0 0 1 .117-.322c5.969-9.259 18.558-10.71 27.38-5.136 2.994 1.893 5.233 4.517 6.727 7.636 2.249 3.054 3.722 6.715 4.051 10.612.824 9.745-5.125 20.118-14.486 22.646-4.694 1.27-10.196 1.058-14.838-.396-4.523-1.416-8.234-4.285-10.264-8.792-.144-.322-.28-.648-.41-.974-.102-.136-.208-.272-.305-.412C-.684 28.922-.122 22.722.392 17.25l.002-.002zm8.667 20.798c3.835 2.894 8.495 4.859 13.284 4.796 4.631-.061 9.118-1.893 12.215-5.535 1.656-1.947 3.11-4.233 4.23-6.555 1.215-2.521 1.391-5.16 1.26-7.939-.108-2.289-.352-4.634-.873-6.893-.34.251-.85.223-.974-.307-1.029-4.376-4.223-7.781-8.128-9.59-4.683-2.169-10.085-2.017-15.016-.98-2.472.52-4.866 1.39-6.661 3.312-1.584 1.695-2.809 3.778-3.745 5.921-1.845 4.222-2.501 8.985-1.906 13.58.233 1.784.65 3.576 1.288 5.262 1.351 1.879 3.12 3.49 5.021 4.928h.005zm-6.194-24.4c-.67 1.25-.903 2.697-1.14 3.846-.189.924-.162 1.888-.216 2.84l.027-.192c.557-3.448 1.805-7.067 3.767-10.069-.167.195-.334.39-.5.587-.74.877-1.388 1.963-1.938 2.988zm7.468-9.096c2.349-.872 5.008-1.24 7.404-1.644 2.754-.464 5.592-.677 8.357-.182a19.353 19.353 0 0 1 6.43 2.415C26.197.416 16.748.026 10.335 4.551zm30.782 23.554c.623-2.772.648-5.563.154-8.22.514 4.05.352 8.311-1.435 11.83-1.419 2.793-3.151 5.478-5.346 7.626.1-.084.198-.169.295-.255 3.177-2.808 5.387-6.776 6.332-10.983v.002zM8.89 39.908c1.335 1.003 2.824 1.752 4.39 2.3a27.854 27.854 0 0 1-5.83-3.571c.447.455.923.884 1.442 1.27H8.89z" fill="#000"/><path d="M27.997 23.21c.273-.01.55-.02.828-.026.023 0 .045-.007.068-.007h.135c.584 0 .727.581.44.889.133.037.266.082.4.138.593.248.247.973-.307 1.001-1.243.066-2.37-.262-3.551-.398-.645.014-1.254.04-1.717.04-1.874 0-3.76-.017-5.63.121-1.029.078-2.08.134-3.136.16-2.163.18-4.324.39-6.494.436-.63.012-.746-.678-.363-.957a17.479 17.479 0 0 1-.604-.136c-.603-.145-.56-.877.002-1.036.561-.16 1.139-.272 1.725-.357-.433-.002-.866-.01-1.301-.021-.78-.021-.778-1.074.009-1.074h.135s.02 0 .03.002c3.58.085 7.128-.14 10.717-.12 3.485.02 6.968.11 10.453.118.782.016.778 1.076-.01 1.074a10.036 10.036 0 0 0-1.833.15l.004.002zm-14.028.81c.223-.032.449-.062.672-.098a45.055 45.055 0 0 0-2.702.03c.674.045 1.353.067 2.03.069z" fill="#000"/><path d="M34.066 22.124a12.085 12.085 0 0 0-.835-.193c-1.302-.673-2.628-1.294-3.936-1.953-1.239-.624-2.69-1.157-3.695-2.135-.332-.32-.914-.091-.914.378v.12c0 .305.208.476.44.516.817.687 1.787 1.109 2.738 1.587a28.444 28.444 0 0 1-1.04-.333c-.354-.175-.728-.288-1.096-.412a12.7 12.7 0 0 1-1.074-.505c-.62-.33-1.093.535-.536.931.455.324.857.472 1.4.624.034.01.064.024.098.033l.29.106c.745.31 1.392.844 2.155 1.08.902.282 1.811.512 2.73.723-.267.216-.58.382-.824.65-.521.567-1.09 1.079-1.645 1.611-1.125 1.081-1.946 2.423-3.252 3.316-.312.214-.382.737.004.929l.24.12c.416.208.798-.15.809-.5 1.114-.898 1.999-2.052 2.964-3.108.345-.377.794-.731 1.25-1.095-.361.345-.727.687-1.097 1.025-1.161 1.065-2.066 2.362-3.088 3.55-.446.521.305 1.28.763.756 2.23-2.54 5.502-4.285 7.473-7.031.205-.286-.016-.701-.322-.786v-.004z" fill="#000"/></svg>